# xmcd
#
# Track frame offsets:
#	151
#	23497
#	38673
#	51400
#	61968
#	83580
#	94863
#	109478
#	119809
#	142718
#	154972
#	168030
#	214605
#	225291
#
# Disc length: 3188 seconds
#
# Revision: 1
# Processed by: cddbd v1.5.1PL0 Copyright (c) Steve Scherf et al.
# Submitted via: EasyCDDAExtractor 7.0.6.1
#
DISCID=ad0c720e
DTITLE=Bo Diddley - Road Runner Live
DYEAR=1998
DGENRE=Blues
TTITLE0=Mona
TTITLE1=Road Runner
TTITLE2=Crackin' Up
TTITLE3=Dancin' Girl
TTITLE4=Evergreen
TTITLE5=Rockin' Bo
TTITLE6=I'm Going Home
TTITLE7=I Don't Know Where I've Been
TTITLE8=Dr Jeckyll
TTITLE9=Can I Go Home
TTITLE10=Rhyme Song
TTITLE11=I'm a Man
TTITLE12=Let the Kids Dance
TTITLE13=Hey Bo Diddley
EXTD=
EXTT0=
EXTT1=
EXTT2=
EXTT3=
EXTT4=
EXTT5=
EXTT6=
EXTT7=
EXTT8=
EXTT9=
EXTT10=
EXTT11=
EXTT12=
EXTT13=
PLAYORDER=
